<svg xmlns="http://www.w3.org/2000/svg" xmlns:xlink="http://www.w3.org/1999/xlink" width="75" height="75" viewBox="0 0 75 75"><defs><clipPath id="a"><circle cx="37.5" cy="37.5" r="37.5" transform="translate(416 703)" fill="#fff"/></clipPath></defs><g transform="translate(-416 -703)"><g clip-path="url(#a)"><g transform="translate(414.438 701.438)"><path d="M70.313,1.563H7.813a6.268,6.268,0,0,0-6.25,6.25v62.5a6.268,6.268,0,0,0,6.25,6.25h62.5a6.268,6.268,0,0,0,6.25-6.25V7.813A6.268,6.268,0,0,0,70.313,1.563Z" fill="#fff"/><path d="M31.719,16.406A24.762,24.762,0,0,0,18.125,28.281a20.009,20.009,0,0,0-2.031,6.094,24.038,24.038,0,0,0,2.031,15.469,23.05,23.05,0,0,0,6.562,7.969,22.012,22.012,0,0,0,8.75,4.375,24.783,24.783,0,0,0,12.188.156A21.353,21.353,0,0,0,61.563,47.188a26.664,26.664,0,0,0,.625-12.656h-22.5v9.375H52.656a10.908,10.908,0,0,1-4.844,7.344A12.974,12.974,0,0,1,42.5,53.281a17.942,17.942,0,0,1-5.781,0,13.522,13.522,0,0,1-5.313-2.344,14.349,14.349,0,0,1-5.469-7.344,13.8,13.8,0,0,1,0-9.375,16.071,16.071,0,0,1,3.438-5.625,12.593,12.593,0,0,1,7.188-3.906A13.456,13.456,0,0,1,43.594,25a15.359,15.359,0,0,1,5.156,2.969l4.375-4.375,2.344-2.344a24.5,24.5,0,0,0-7.656-4.844A25.761,25.761,0,0,0,31.719,16.406Z" fill="#fff"/><path d="M31.719,16.406a24.7,24.7,0,0,1,16.094.156,21.976,21.976,0,0,1,7.656,4.844L53.125,23.75,48.75,28.125a11.473,11.473,0,0,0-5.156-2.969,15.221,15.221,0,0,0-7.031-.312,16.232,16.232,0,0,0-7.188,3.906,14.065,14.065,0,0,0-3.438,5.625c-2.656-2.031-5.156-4.063-7.812-6.094A24.762,24.762,0,0,1,31.719,16.406Z" fill="#ea4335"/><path d="M16.094,34.375a31,31,0,0,1,2.031-6.094c2.656,2.031,5.156,4.063,7.813,6.094a13.8,13.8,0,0,0,0,9.375c-2.656,2.031-5.156,4.063-7.812,6.094A24.171,24.171,0,0,1,16.094,34.375Z" fill="#fbbc05"/><path d="M39.531,34.531h22.5a26.664,26.664,0,0,1-.625,12.656,22.271,22.271,0,0,1-6.094,10c-2.5-2.031-5-3.906-7.656-5.937A11.871,11.871,0,0,0,52.5,43.906H39.531Q39.531,39.219,39.531,34.531Z" fill="#4285f4"/><path d="M18.125,49.844c2.656-2.031,5.156-4.062,7.813-6.094a14.349,14.349,0,0,0,5.469,7.344,16.232,16.232,0,0,0,5.313,2.344,17.935,17.935,0,0,0,5.781,0,15.635,15.635,0,0,0,5.313-2.031c2.5,2.031,5,3.906,7.656,5.937A22.967,22.967,0,0,1,45.625,62.5a24.737,24.737,0,0,1-12.187-.156,24.274,24.274,0,0,1-8.75-4.375A29.466,29.466,0,0,1,18.125,49.844Z" fill="#34a853"/></g></g></g></svg>